<svg xmlns="http://www.w3.org/2000/svg" xmlns:xlink="http://www.w3.org/1999/xlink" viewBox="0" enable-background="new 0" version="1.1" id="svg101" width="800.00128" height="186.60001"><style type="text/css" id="style2">.st3{fill:none;stroke:#9ab4d8;stroke-width:.5;stroke-miterlimit:10}.st6{fill:#2b2a29}.st11,.st8{fill-rule:evenodd;clip-rule:evenodd}.st11,.st12{fill:#d1362c}.st13{fill-rule:evenodd;clip-rule:evenodd;fill:#e91d3e}</style><path style="opacity:.15;fill:#000;fill-opacity:1;stroke:none;stroke-width:.5;stroke-miterlimit:10;filter:url(#filter1383)" id="path1220" d="m 640.5,64.6 h 100.9 c 5.6,0 10.2,4.6 10.2,10.2 v 52.4 c 0,5.6 -4.6,10.2 -10.2,10.2 H 640.5 c -5.6,0 -10.2,-4.6 -10.2,-10.2 V 74.8 c 0,-5.6 4.6,-10.2 10.2,-10.2" class="st3"/><path style="opacity:.15;fill:#000;fill-opacity:1;stroke:none;stroke-width:.5;stroke-miterlimit:10;filter:url(#filter1379)" id="path1199" d="m 495,64.6 h 100.9 c 5.6,0 10.2,4.6 10.2,10.2 v 52.4 c 0,5.6 -4.6,10.2 -10.2,10.2 H 495 c -5.6,0 -10.2,-4.6 -10.2,-10.2 V 74.8 c 0,-5.6 4.6,-10.2 10.2,-10.2" class="st3"/><path style="opacity:.15;fill:#000;fill-opacity:1;stroke:none;stroke-width:.5;stroke-miterlimit:10;filter:url(#filter1375)" id="path1193" d="m 349.5,64.6 h 100.9 c 5.6,0 10.2,4.6 10.2,10.2 v 52.4 c 0,5.6 -4.6,10.2 -10.2,10.2 H 349.5 c -5.6,0 -10.2,-4.6 -10.2,-10.2 V 74.8 c 0.1,-5.6 4.6,-10.2 10.2,-10.2" class="st3"/><path style="opacity:.15;fill:#000;fill-opacity:1;stroke:none;stroke-width:.5;stroke-miterlimit:10;filter:url(#filter1371)" id="path1159" d="m 204,64.6 h 100.9 c 5.6,0 10.2,4.6 10.2,10.2 v 52.4 c 0,5.6 -4.6,10.2 -10.2,10.2 H 204 c -5.6,0 -10.2,-4.6 -10.2,-10.2 V 74.8 c 0.1,-5.6 4.6,-10.2 10.2,-10.2" class="st3"/><path style="opacity:.15;fill:#000;fill-opacity:1;stroke:none;stroke-width:.5;stroke-miterlimit:10;filter:url(#filter1367)" id="path1117" d="m 58.5,64.6 h 100.9 c 5.6,0 10.2,4.6 10.2,10.2 v 52.4 c 0,5.6 -4.6,10.2 -10.2,10.2 H 58.5 c -5.6,0 -10.2,-4.6 -10.2,-10.2 V 74.8 C 48.4,69.2 53,64.6 58.5,64.6" class="st3"/><g id="g905"><path style="fill:#fff;fill-opacity:1;stroke:#9ab4d8;stroke-width:.5;stroke-miterlimit:10" id="path30" d="m 58.5,60.6 h 100.9 c 5.6,0 10.2,4.6 10.2,10.2 v 52.4 c 0,5.6 -4.6,10.2 -10.2,10.2 H 58.5 c -5.6,0 -10.2,-4.6 -10.2,-10.2 V 70.8 C 48.4,65.2 53,60.6 58.5,60.6" class="st3"/><path id="path38" d="m 139.7,101.1 h 6 l -2.2,-10.5 c -0.2,0.4 -3.6,9.9 -3.8,10.5 M 95,111.3 h 7.4 l 6.1,-28.6 h -7.4 z m 13.9,-7.3 c -0.3,0.5 -1.4,5.6 -1.4,6.3 5.5,2.3 15.3,2.4 19.4,-3 1.2,-1.6 2.1,-4.2 1.6,-6.8 -1,-4.7 -6.2,-5.9 -9,-8 -3,-2.2 0,-5.2 6,-4 1.4,0.3 2.2,0.7 3.3,1.1 l 1.3,-6.1 c -2.7,-0.7 -4,-1.2 -7.3,-1.2 -4.3,0 -9.3,1.7 -11.3,5.7 -2.4,4.8 0,8.7 4.4,11 1.6,0.8 4.5,2 4.9,3.5 0.8,2.7 -2.8,3.5 -5,3.4 -4.2,-0.4 -4.5,-1.2 -6.9,-1.9 z M 63.3,83.1 v 0.4 c 2.1,0.3 6.4,1.7 7.9,2.8 1,0.8 1.2,2.2 1.6,3.7 l 4.4,17 c 0.3,1.4 0.7,3 1.1,4.3 h 7.8 c 0.6,-1.2 5.4,-12.8 6,-14.3 l 4.5,-10.7 c 0.3,-0.8 1.3,-2.9 1.5,-3.6 H 90.4 L 82.7,102 C 82.3,101.4 80,87.9 79.6,85.9 c -0.7,-3.4 -2.9,-3.2 -6.4,-3.2 -3.1,0 -6.5,-0.1 -9.6,0 z m 91.5,28.2 v -0.2 l -6,-28.4 c -1.8,-0.1 -4.2,0 -6.1,0 -2.1,0 -2.9,1 -3.5,2.6 -0.7,1.6 -10.8,25.6 -10.8,26.1 h 7.7 l 1.6,-4.3 h 9.4 c 0.3,0.7 0.4,1.8 0.6,2.5 0.4,2 0.2,1.8 1.2,1.8 1.8,-0.1 3.9,-0.1 5.9,-0.1 z" style="clip-rule:evenodd;fill:#191b73;fill-rule:evenodd"/></g><g id="g878"><path style="fill:#fff406;fill-opacity:1;stroke:#9ab4d8;stroke-width:.5;stroke-miterlimit:10" id="path18" d="m 495,60.6 h 100.9 c 5.6,0 10.2,4.6 10.2,10.2 v 52.4 c 0,5.6 -4.6,10.2 -10.2,10.2 H 495 c -5.6,0 -10.2,-4.6 -10.2,-10.2 V 70.8 c 0,-5.6 4.6,-10.2 10.2,-10.2" class="st3"/><path style="clip-rule:evenodd;fill-rule:evenodd" id="path52" d="m 516.15,94.55 v -10.9 c 0,-0.7 0.6,-1.4 1.4,-1.4 0.8,0 1.4,0.6 1.4,1.4 v 10.9 c 0,0.7 -0.6,1.4 -1.4,1.4 -0.8,-0.1 -1.4,-0.7 -1.4,-1.4 m 6.2,1.3 h -2 c -0.3,0 -0.4,-0.2 -0.3,-0.5 l 4.8,-11.8 c 0.3,-0.8 1.1,-1.3 2,-1.3 0.8,0 1.6,0.6 1.9,1.3 l 3.4,8.4 3.4,-8.4 c 0.3,-0.8 1.1,-1.3 2,-1.3 0.8,0 1.6,0.6 1.9,1.3 l 4.8,11.8 c 0.1,0.3 0,0.5 -0.3,0.5 h -2 c -0.2,0 -0.4,-0.2 -0.5,-0.3 l -4,-9.8 -4,9.8 c -0.2,0.4 -0.6,0.3 -1,0.3 h -1.2 c -0.2,0 -0.4,-0.2 -0.5,-0.3 l -4,-9.8 -4,9.8 c 0,0.1 -0.2,0.3 -0.4,0.3 z m -7.6,13.2 -8.4,-7.8 c -0.1,-0.1 -0.8,-0.8 -0.8,-1.8 0,-0.7 0.6,-1.4 1.4,-1.4 h 11 c 0.8,0 1.4,0.6 1.4,1.4 0,0.8 -0.6,1.4 -1.4,1.4 h -7.8 l 8.4,7.8 c 0.1,0.1 0.8,0.8 0.8,1.8 0,0.7 -0.6,1.4 -1.4,1.4 h -11 c -0.8,0 -1.4,-0.6 -1.4,-1.4 0,-0.7 0.6,-1.4 1.4,-1.4 z m 7.6,-11 h -2 c -0.3,0 -0.4,0.2 -0.3,0.5 l 4.8,11.8 c 0.3,0.8 1.1,1.3 2,1.3 0.8,0 1.6,-0.6 1.9,-1.3 l 3.4,-8.4 3.4,8.4 c 0.3,0.8 1.1,1.3 2,1.3 0.8,0 1.6,-0.6 1.9,-1.3 l 4.8,-11.8 c 0.1,-0.3 0,-0.5 -0.3,-0.5 h -2 c -0.2,0 -0.4,0.2 -0.5,0.3 l -4,9.8 -4,-9.8 c -0.2,-0.4 -0.6,-0.3 -1,-0.3 h -1.2 c -0.2,0 -0.4,0.2 -0.5,0.3 l -4,9.8 -4,-9.8 c 0,-0.1 -0.2,-0.3 -0.4,-0.3 z m 23,12.3 v -10.9 c 0,-0.7 0.6,-1.4 1.4,-1.4 0.8,0 1.4,0.6 1.4,1.4 v 10.9 c 0,0.7 -0.6,1.4 -1.4,1.4 -0.8,-0.1 -1.4,-0.7 -1.4,-1.4 z m 5.1,-12.2 h 9.9 c 0.8,0 1.4,0.6 1.4,1.4 0,0.8 -0.6,1.4 -1.4,1.4 h -3.3 c -0.4,0 -0.8,0.4 -0.8,0.8 v 8.7 c 0,0.7 -0.6,1.4 -1.4,1.4 -0.8,0 -1.4,-0.6 -1.4,-1.4 v -8.7 c 0,-0.4 -0.4,-0.8 -0.8,-0.8 h -2.3 c -0.8,0 -1.4,-0.6 -1.4,-1.4 0,-0.8 0.8,-1.4 1.5,-1.4 z m 19.3,0 h 4.4 c 0.7,0 1.3,0.6 1.3,1.3 0,0.7 -0.6,1.3 -1.3,1.3 h -5.7 c -2.2,0 -4,1.8 -4,4 v 0.4 c 0,2.2 1.8,4 4,4 h 5.7 c 0.7,0 1.3,0.6 1.3,1.3 0,0.7 -0.6,1.3 -1.3,1.3 h -5.9 c -3.5,0 -6.4,-2.9 -6.4,-6.4 v -0.9 c 0,-3.5 2.9,-6.4 6.4,-6.4 h 1.5 z m -40.5,-1.4 -2.4,-5.9 -2.4,5.9 2.4,5.9 z m 8.5,-6 -2.4,5.9 2.4,5.9 2.4,-5.9 z m 38.9,19.7 v -11 c 0,-0.7 0.6,-1.3 1.3,-1.3 0.7,0 1.3,0.6 1.3,1.3 v 3.4 c 0,0.4 0.4,0.8 0.8,0.8 h 5.2 c 0.7,0 1.3,0.6 1.3,1.3 0,0.7 -0.6,1.3 -1.3,1.3 h -5.2 c -0.4,0 -0.8,0.4 -0.8,0.8 v 3.4 c 0,0.7 -0.6,1.3 -1.3,1.3 -0.7,-0.1 -1.3,-0.6 -1.3,-1.3 z m 10.8,-0.1 v -10.9 c 0,-0.7 0.6,-1.4 1.4,-1.4 0.8,0 1.4,0.6 1.4,1.4 v 10.9 c 0,0.7 -0.6,1.4 -1.4,1.4 -0.8,-0.1 -1.4,-0.7 -1.4,-1.4 z m -77.6,-25.4 -8.4,7.8 c -0.1,0.1 -0.8,0.8 -0.8,1.8 0,0.7 0.6,1.4 1.4,1.4 h 11 c 0.8,0 1.4,-0.6 1.4,-1.4 0,-0.7 -0.6,-1.4 -1.4,-1.4 h -7.8 l 8.4,-7.8 c 0,0 0.8,-0.7 0.8,-1.8 0,-0.7 -0.6,-1.4 -1.4,-1.4 h -11 c -0.8,0 -1.4,0.6 -1.4,1.4 0,0.7 0.6,1.4 1.4,1.4 z" class="st8"/></g><g id="g889"><path style="fill:#fff;fill-opacity:1;stroke:#9ab4d8;stroke-width:.5;stroke-miterlimit:10" id="path24" d="m 349.5,60.6 h 100.9 c 5.6,0 10.2,4.6 10.2,10.2 v 52.4 c 0,5.6 -4.6,10.2 -10.2,10.2 H 349.5 c -5.6,0 -10.2,-4.6 -10.2,-10.2 V 70.8 c 0.1,-5.6 4.6,-10.2 10.2,-10.2" class="st3"/><g transform="translate(-.05 .24157667)" id="g1115"><path style="clip-rule:evenodd;fill:#3a2854;fill-rule:evenodd" d="m 352,88.2 h 10.2 v 4.1 h -4.9 v 1.6 h 4.5 v 3.9 h -4.5 v 1.6 h 4.9 v 4 H 352 Z m 19.5,-0.3 c 1.3,0 2.5,0.3 3.6,0.8 v 5.5 c -0.6,-0.8 -1.6,-1.4 -2.8,-1.4 -1.8,0 -3.3,1.4 -3.3,3 0,1.7 1.5,3 3.3,3 1.2,0 2.2,-0.5 2.8,-1.4 v 5.5 c -1.1,0.5 -2.3,0.8 -3.6,0.8 -4.5,0 -8.1,-3.6 -8.1,-8 0,-4.3 3.6,-7.8 8.1,-7.8" id="path54"/><path style="fill:url(#SVGID_3_);clip-path:url(#SVGID_2_)" d="m 375.8,88.4 h 14.7 V 103 h -14.7 z" clip-path="url(#SVGID_2_)" id="path67"/><path style="clip-rule:evenodd;fill:#d1362c;fill-rule:evenodd" class="st11" d="m 390.3,94.4 c 3.5,0.7 6.6,2.2 2.8,5.2 -5.5,4.5 -22.2,7.2 -29.2,4.3 5.2,3.8 25.3,0.8 31.3,-4.2 4.5,-3.7 -1.6,-5.2 -4.9,-5.3" id="path69"/><path style="fill:#d1362c" class="st12" d="m 435.5,88.7 h 2.9 v 5.8 h 6.7 v -5.8 h 2.9 v 14.4 h -2.9 v -6 h -6.7 v 6 h -2.9 z" id="path71"/><path style="clip-rule:evenodd;fill:#d1362c;fill-rule:evenodd" class="st11" d="m 415.3,97.7 2.1,-6.3 h 0.2 l 2.1,6.3 z m -1.8,5.4 1,-3.1 h 5.9 l 1,3.1 h 3.2 l -5.5,-14.3 h -3.4 l -5.5,14.3 z" id="path73"/><path style="fill:#d1362c" class="st12" d="m 426.8,99.8 0.3,0.3 c 0.7,0.6 1.5,0.9 2.3,0.9 0.8,0 1.5,-0.2 2,-0.6 0.1,0 0.1,-0.1 0.2,-0.2 0.3,-0.3 0.5,-0.7 0.4,-1 0,-0.3 -0.2,-0.7 -0.5,-1 -0.6,-0.6 -1.4,-1 -2.2,-1.4 -1,-0.5 -2,-1.1 -2.9,-1.9 -0.7,-0.7 -1,-1.5 -1.1,-2.3 -0.1,-0.9 0.2,-1.7 0.7,-2.4 0.3,-0.4 0.7,-0.8 1.2,-1.1 0.9,-0.6 1.9,-0.8 3,-0.8 1.1,0 2.1,0.3 3,0.9 0.5,0.3 0.8,0.7 1.2,1.2 l -2.1,1.3 c -0.1,-0.2 -0.3,-0.4 -0.5,-0.5 -0.4,-0.3 -1,-0.5 -1.6,-0.5 -0.6,0 -1.1,0.1 -1.6,0.4 -0.2,0.1 -0.4,0.3 -0.5,0.5 -0.2,0.3 -0.3,0.6 -0.3,0.8 0,0.3 0.1,0.5 0.4,0.8 0.6,0.6 1.4,1 2.3,1.5 1,0.5 2,1 2.8,1.9 0.8,0.8 1.2,1.7 1.2,2.7 0,1 -0.4,1.9 -1.1,2.7 l -0.4,0.4 c -1,0.8 -2.3,1.2 -3.7,1.2 -1.4,0 -2.8,-0.5 -3.9,-1.6 -0.2,-0.2 -0.4,-0.4 -0.5,-0.6 z" id="path75"/><path style="clip-rule:evenodd;fill:#d1362c;fill-rule:evenodd" class="st11" d="m 405.6,88.4 c 1.6,0 2.9,0.3 3.9,0.9 v 3.1 c -1,-1 -2.4,-1.6 -3.9,-1.6 -3,0 -5.4,2.3 -5.4,5.2 0,2.8 2.4,5.2 5.4,5.2 1.5,0 2.9,-0.6 3.9,-1.6 v 3.1 c -1.1,0.6 -2.4,0.9 -3.9,0.9 -5.1,0 -8.3,-3.4 -8.3,-7.6 0,-4.2 3.3,-7.6 8.3,-7.6" id="path77"/></g></g><g id="g874"><path style="fill:#fff;fill-opacity:1;stroke:#9ab4d8;stroke-width:.5;stroke-miterlimit:10" id="path12" d="m 640.5,60.6 h 100.9 c 5.6,0 10.2,4.6 10.2,10.2 v 52.4 c 0,5.6 -4.6,10.2 -10.2,10.2 H 640.5 c -5.6,0 -10.2,-4.6 -10.2,-10.2 V 70.8 c 0,-5.6 4.6,-10.2 10.2,-10.2" class="st3"/><g transform="translate(.02950142 3.4)" id="g1106"><path style="clip-rule:evenodd;fill:#e91d3e;fill-rule:evenodd" class="st13" d="m 666,84.7 h 2 c 1.6,0 2.9,1.3 2.9,2.9 v 11 c 0,1.7 2.1,1.5 3,1.4 0,0.7 0.1,1.4 -0.1,2 -0.6,2.9 -5.5,2.1 -6.9,0 -0.7,-1.1 -0.9,-2.6 -0.9,-4.3 z m -18.8,1.5 h 0.3 v 3.4 h 4 c 0.1,1.6 0.1,3.8 -2.3,3.8 h -1.8 v 5.5 c 0,1.6 2.6,1.4 3.9,0.9 0.2,1.8 -0.2,2.8 -0.9,3.4 -1.5,1.3 -4.8,0.8 -6.2,-0.6 -0.8,-0.8 -1.4,-2.1 -1.4,-3.9 v -8 c 0,-2.5 2,-4.5 4.4,-4.5" id="path81"/><path style="clip-rule:evenodd;fill:#e91d3e;fill-rule:evenodd" class="st13" d="m 656.3,95.3 c 0.2,-1 0.6,-1.7 1.1,-2.1 0.5,-0.4 1.3,-0.6 1.9,-0.5 1.6,0.2 2.8,2.2 0.2,2.5 -1,0.2 -2.3,0.1 -3.2,0.1 m 8,4.3 c 0.3,2.1 -0.4,3.3 -1.8,3.9 -2.3,1 -6.1,0.8 -8.1,-0.8 -1.5,-1.2 -2.3,-2.8 -2.5,-4.7 -0.4,-3.2 0.7,-6.3 3.6,-7.9 0.9,-0.5 1.8,-0.8 2.7,-0.9 2.8,-0.3 5.5,0.9 6.6,3.6 0.3,0.8 0.4,1.6 0.4,2.3 -0.1,2.2 -1.5,2.8 -3.4,3.1 -1.4,0.2 -3.2,0.2 -5.5,0.1 0.2,3.1 6.6,2.6 8,1.3 z m 14.1,-4.3 c 0.2,-1 0.6,-1.7 1.1,-2.1 0.5,-0.4 1.3,-0.6 1.9,-0.5 1.6,0.2 2.8,2.2 0.2,2.5 -1,0.2 -2.2,0.1 -3.2,0.1 m 8.1,4.3 c 0.3,2.1 -0.4,3.3 -1.8,3.9 -2.3,1 -6.1,0.8 -8.1,-0.8 -1.5,-1.2 -2.3,-2.8 -2.5,-4.7 -0.4,-3.2 0.7,-6.3 3.6,-7.9 0.9,-0.5 1.8,-0.8 2.7,-0.9 2.8,-0.3 5.5,0.9 6.6,3.6 0.3,0.8 0.4,1.6 0.4,2.3 -0.1,2.2 -1.5,2.8 -3.4,3.1 -1.4,0.2 -3.2,0.2 -5.5,0.1 0.2,3.1 6.6,2.6 8,1.3 z" id="path83"/><path style="clip-rule:evenodd;fill-rule:evenodd" class="st8" d="m 698,103.5 v -3.3 c -2.3,1.1 -4.1,0.7 -5,-0.5 -1.6,-2 -0.4,-5.1 1.5,-6.4 1.3,-0.9 2.9,-1.1 4.5,-0.4 0.3,-1.1 0.7,-2.2 1,-3.2 -1.4,-0.6 -6.7,-0.9 -9.8,2.6 -2.6,3 -3.4,8.6 0.4,10.9 1.8,1.1 4.4,1.3 7.4,0.3" id="path85"/><path style="clip-rule:evenodd;fill-rule:evenodd" class="st8" d="m 708.7,92.4 c -3.7,-0.8 -7.2,4.9 -5.4,7.6 0.5,0.8 1.5,1.2 2.6,0.4 0.3,-0.2 0.7,-0.5 1,-0.9 1.2,-1.6 1.4,-5.1 1.8,-7.1 m -1,8.9 c 0,0.8 -0.1,1.6 0,2.5 h 3.7 c 0.1,-5.1 1.1,-9.5 1.9,-14 -4.5,-1.5 -11,-0.5 -13.6,4.5 -1.3,2.5 -1.9,7 0.6,9 2,1.6 5.2,1.1 7.4,-2 z m 16.5,2.8 4,-21.1 h 4.1 l -1.6,8.5 c 2.1,-2 3.8,-2.4 5.2,-2.1 3.8,0.6 3.3,4.7 2.8,7.5 -0.5,2.4 -1.5,5.1 -1.4,7.3 H 733 c 0.4,-2.1 0.8,-4.1 1.3,-6.2 0.2,-0.9 0.5,-2.1 0.5,-3.2 0,-3.9 -4.2,-2.1 -5.1,2.5 l -1.3,6.9 h -4.2 z" id="path87"/><path style="clip-rule:evenodd;fill:#e91d3e;fill-rule:evenodd" class="st13" d="m 719.7,99.4 c 0.2,-2.3 -1.5,-3.5 -1.4,-5 0.1,-2.5 3.4,-2.4 5.1,-1.8 l -0.5,1 3,-1.2 -0.7,-3.3 -0.5,1 c -1.5,-0.9 -4.2,-1.1 -6.4,-0.3 -2.5,0.9 -4.3,3.7 -2.8,6.2 1,1.5 3.2,1.8 4.2,3.4" id="path89"/><path style="clip-rule:evenodd;fill-rule:evenodd" class="st8" d="m 719.2,94 c -0.1,1.1 0.4,2 0.8,2.7 2.4,4.3 -2.3,5 -5.5,3.8 l 0.5,-1 -3,1.2 0.7,3.3 0.5,-1 c 0.7,0.4 2.1,0.8 3.5,0.9 2.6,0.2 5.3,-0.2 6.7,-2.7 0.7,-1.2 0.8,-2.7 0,-4.1 -1,-1.5 -3.2,-1.5 -4.2,-3.1" id="path91"/></g></g><g id="g901"><path style="fill:#fff;fill-opacity:1;stroke:#9ab4d8;stroke-width:.5;stroke-miterlimit:10" id="path36" d="m 204,60.6 h 100.9 c 5.6,0 10.2,4.6 10.2,10.2 v 52.4 c 0,5.6 -4.6,10.2 -10.2,10.2 H 204 c -5.6,0 -10.2,-4.6 -10.2,-10.2 V 70.8 c 0.1,-5.6 4.6,-10.2 10.2,-10.2" class="st3"/><path id="path40" d="m 234.3,116 c -0.2,-0.2 -0.4,-0.3 -0.6,-0.4 -0.2,-0.1 -0.5,-0.1 -0.8,-0.1 h -0.5 l -0.5,0.1 -0.5,0.3 -0.4,0.4 c -0.2,-0.3 -0.4,-0.5 -0.7,-0.7 -0.3,-0.2 -0.6,-0.2 -1,-0.2 h -0.4 l -0.4,0.1 -0.4,0.2 c -0.1,0.1 -0.2,0.2 -0.3,0.4 v -0.6 h -1.1 v 5 h 1.1 v -2.8 c 0,-0.2 0,-0.4 0.1,-0.6 0.1,-0.2 0.2,-0.3 0.3,-0.4 0.1,-0.1 0.2,-0.2 0.4,-0.3 0.2,-0.1 0.3,-0.1 0.5,-0.1 0.4,0 0.6,0.1 0.8,0.3 0.2,0.2 0.3,0.6 0.3,1 v 2.8 h 1.1 v -2.8 c 0,-0.2 0,-0.4 0.1,-0.6 0.1,-0.2 0.2,-0.3 0.3,-0.4 0.1,-0.1 0.2,-0.2 0.4,-0.3 0.2,-0.1 0.3,-0.1 0.5,-0.1 0.4,0 0.6,0.1 0.8,0.3 0.2,0.2 0.3,0.6 0.3,1 v 2.8 h 1.1 v -3.2 c 0,-0.3 0,-0.6 -0.1,-0.8 l -0.4,-0.3" class="st6" style="fill:#2b2a29"/><path id="path42" d="m 239.9,116.1 c -0.2,-0.2 -0.4,-0.4 -0.7,-0.5 -0.3,-0.1 -0.6,-0.2 -0.9,-0.2 -0.4,0 -0.7,0.1 -1,0.2 -0.3,0.1 -0.6,0.3 -0.8,0.5 -0.2,0.2 -0.4,0.5 -0.5,0.8 -0.1,0.3 -0.2,0.7 -0.2,1.1 0,0.4 0.1,0.7 0.2,1.1 0.1,0.3 0.3,0.6 0.5,0.8 0.2,0.2 0.5,0.4 0.8,0.5 0.3,0.1 0.6,0.2 1,0.2 0.4,0 0.7,-0.1 0.9,-0.2 0.3,-0.1 0.5,-0.3 0.7,-0.5 v 0.6 h 1.1 v -5 h -1.1 z m 0,2.6 c -0.1,0.2 -0.2,0.4 -0.3,0.5 -0.1,0.1 -0.3,0.3 -0.5,0.3 -0.2,0.1 -0.4,0.1 -0.6,0.1 -0.2,0 -0.5,0 -0.6,-0.1 l -0.5,-0.3 c -0.1,-0.1 -0.2,-0.3 -0.3,-0.5 -0.1,-0.2 -0.1,-0.4 -0.1,-0.6 0,-0.2 0,-0.4 0.1,-0.6 0.1,-0.2 0.2,-0.4 0.3,-0.5 0.1,-0.1 0.3,-0.3 0.5,-0.3 0.2,-0.1 0.4,-0.1 0.6,-0.1 0.2,0 0.4,0 0.6,0.1 l 0.5,0.3 c 0.1,0.1 0.2,0.3 0.3,0.5 0.1,0.2 0.1,0.4 0.1,0.6 0,0.2 -0.1,0.4 -0.1,0.6 z m 6.2,-0.7 c -0.3,-0.2 -0.7,-0.4 -1.3,-0.5 l -0.5,-0.1 c -0.1,0 -0.2,0 -0.3,-0.1 l -0.3,-0.1 -0.2,-0.1 -0.1,-0.2 c 0,-0.2 0.1,-0.3 0.2,-0.4 0.2,-0.1 0.4,-0.2 0.7,-0.2 h 0.5 c 0.2,0 0.3,0.1 0.4,0.1 l 0.4,0.1 c 0.1,0.1 0.2,0.1 0.3,0.1 l 0.5,-0.9 c -0.3,-0.2 -0.6,-0.3 -0.9,-0.4 -0.4,-0.1 -0.7,-0.1 -1.1,-0.1 -0.3,0 -0.6,0 -0.9,0.1 -0.3,0.1 -0.5,0.2 -0.7,0.3 -0.2,0.1 -0.3,0.3 -0.4,0.5 -0.1,0.2 -0.1,0.4 -0.1,0.7 0,0.4 0.1,0.7 0.4,1 0.3,0.3 0.7,0.4 1.3,0.5 l 0.5,0.1 c 0.3,0 0.5,0.1 0.7,0.2 0.1,0.1 0.2,0.2 0.2,0.4 0,0.2 -0.1,0.3 -0.3,0.4 -0.2,0.1 -0.5,0.2 -0.9,0.2 h -0.6 c -0.2,0 -0.3,-0.1 -0.4,-0.1 -0.1,0 -0.3,-0.1 -0.4,-0.2 l -0.3,-0.2 -0.5,0.8 0.6,0.3 0.6,0.2 c 0.2,0 0.4,0.1 0.5,0.1 h 0.5 c 0.4,0 0.7,0 1,-0.1 0.3,-0.1 0.5,-0.2 0.7,-0.3 0.2,-0.1 0.3,-0.3 0.4,-0.5 0.1,-0.2 0.2,-0.4 0.2,-0.7 0,-0.3 -0.1,-0.6 -0.4,-0.9" class="st6" style="fill:#2b2a29"/><path id="path44" d="m 256.3,116.1 c -0.2,-0.2 -0.5,-0.4 -0.8,-0.5 -0.3,-0.1 -0.6,-0.2 -1,-0.2 -0.4,0 -0.7,0.1 -1,0.2 -0.3,0.1 -0.6,0.3 -0.8,0.5 -0.2,0.2 -0.4,0.5 -0.5,0.8 -0.1,0.3 -0.2,0.7 -0.2,1.1 0,0.4 0.1,0.8 0.2,1.1 0.1,0.3 0.3,0.6 0.5,0.8 0.2,0.2 0.5,0.4 0.8,0.5 0.3,0.1 0.7,0.2 1,0.2 0.4,0 0.7,-0.1 1.1,-0.2 0.3,-0.1 0.7,-0.3 1,-0.6 l -0.5,-0.8 c -0.2,0.2 -0.4,0.3 -0.7,0.4 -0.3,0.1 -0.5,0.1 -0.8,0.1 -0.2,0 -0.4,0 -0.5,-0.1 -0.2,0 -0.3,-0.1 -0.4,-0.2 -0.1,-0.1 -0.2,-0.2 -0.3,-0.4 -0.1,-0.2 -0.2,-0.4 -0.2,-0.6 h 3.7 v -0.4 c 0,-0.4 -0.1,-0.8 -0.2,-1.1 0,-0.1 -0.2,-0.3 -0.4,-0.6 m -3,1.5 0.1,-0.5 c 0.1,-0.2 0.2,-0.3 0.3,-0.4 0.1,-0.1 0.2,-0.2 0.4,-0.3 0.2,-0.1 0.3,-0.1 0.5,-0.1 0.4,0 0.6,0.1 0.9,0.3 0.2,0.2 0.4,0.5 0.4,0.9 h -2.6 z m 17.6,-1.5 c -0.2,-0.2 -0.4,-0.4 -0.7,-0.5 -0.3,-0.1 -0.6,-0.2 -0.9,-0.2 -0.4,0 -0.7,0.1 -1,0.2 -0.3,0.1 -0.6,0.3 -0.8,0.5 -0.2,0.2 -0.4,0.5 -0.5,0.8 -0.1,0.3 -0.2,0.7 -0.2,1.1 0,0.4 0.1,0.7 0.2,1.1 0.1,0.3 0.3,0.6 0.5,0.8 0.2,0.2 0.5,0.4 0.8,0.5 0.3,0.1 0.6,0.2 1,0.2 0.4,0 0.7,-0.1 0.9,-0.2 0.3,-0.1 0.5,-0.3 0.7,-0.5 v 0.6 h 1.1 v -5 h -1.1 z m 0,2.6 c -0.1,0.2 -0.2,0.4 -0.3,0.5 -0.1,0.1 -0.3,0.3 -0.5,0.3 -0.2,0.1 -0.4,0.1 -0.6,0.1 -0.2,0 -0.5,0 -0.6,-0.1 l -0.5,-0.3 c -0.1,-0.1 -0.2,-0.3 -0.3,-0.5 -0.1,-0.2 -0.1,-0.4 -0.1,-0.6 0,-0.2 0,-0.4 0.1,-0.6 0.1,-0.2 0.2,-0.4 0.3,-0.5 0.1,-0.1 0.3,-0.3 0.5,-0.3 0.2,-0.1 0.4,-0.1 0.6,-0.1 0.2,0 0.4,0 0.6,0.1 l 0.5,0.3 c 0.1,0.1 0.2,0.3 0.3,0.5 0.1,0.2 0.1,0.4 0.1,0.6 0,0.2 0,0.4 -0.1,0.6 z m -20.1,0.9 c -0.2,0.1 -0.4,0.1 -0.5,0.1 -0.1,0 -0.2,0 -0.3,-0.1 -0.1,0 -0.2,-0.1 -0.3,-0.2 l -0.2,-0.3 -0.1,-0.4 v -2.2 h 1.8 v -1 h -1.8 V 114 h -1.1 v 1.5 h -1 v 1 h 1 v 2.2 c 0,0.7 0.2,1.2 0.5,1.5 0.3,0.3 0.8,0.5 1.3,0.5 0.3,0 0.6,0 0.9,-0.1 l 0.5,-0.2 -0.4,-0.9 c -0.1,0 -0.2,0 -0.3,0.1 m 9.9,-4.2 c -0.3,0 -0.6,0.1 -0.8,0.2 -0.2,0.1 -0.5,0.4 -0.6,0.6 v -0.7 h -1 v 5 h 1 v -2.8 c 0,-0.2 0,-0.4 0.1,-0.6 0.1,-0.2 0.1,-0.3 0.2,-0.4 0.1,-0.1 0.2,-0.2 0.4,-0.3 0.1,-0.1 0.3,-0.1 0.5,-0.1 h 0.4 c 0.1,0 0.2,0 0.2,0.1 l 0.3,-1.1 -0.3,-0.1 c -0.1,0.2 -0.2,0.2 -0.4,0.2 m 15.2,0 c -0.3,0 -0.6,0.1 -0.8,0.2 -0.2,0.1 -0.5,0.4 -0.6,0.6 v -0.7 h -1 v 5 h 1 v -2.8 c 0,-0.2 0,-0.4 0.1,-0.6 0.1,-0.2 0.1,-0.3 0.2,-0.4 0.1,-0.1 0.2,-0.2 0.4,-0.3 0.1,-0.1 0.3,-0.1 0.5,-0.1 h 0.4 c 0.1,0 0.2,0 0.2,0.1 l 0.3,-1.1 -0.3,-0.1 c 0,0.2 -0.2,0.2 -0.4,0.2" class="st6" style="fill:#2b2a29"/><path id="path46" d="m 281.1,113.5 v 2.7 c -0.2,-0.2 -0.4,-0.4 -0.7,-0.5 -0.3,-0.1 -0.6,-0.2 -0.9,-0.2 -0.4,0 -0.7,0.1 -1,0.2 -0.3,0.1 -0.6,0.3 -0.8,0.5 -0.2,0.2 -0.4,0.5 -0.5,0.8 -0.1,0.3 -0.2,0.7 -0.2,1.1 0,0.4 0.1,0.7 0.2,1.1 0.1,0.3 0.3,0.6 0.5,0.8 0.2,0.2 0.5,0.4 0.8,0.5 0.3,0.1 0.6,0.2 1,0.2 0.4,0 0.7,-0.1 0.9,-0.2 0.3,-0.1 0.5,-0.3 0.7,-0.5 v 0.6 h 1.1 v -7.1 z m -0.1,5.2 c -0.1,0.2 -0.2,0.4 -0.3,0.5 -0.1,0.1 -0.3,0.3 -0.5,0.3 -0.2,0.1 -0.4,0.1 -0.6,0.1 -0.2,0 -0.5,0 -0.6,-0.1 l -0.5,-0.3 c -0.1,-0.1 -0.2,-0.3 -0.3,-0.5 -0.1,-0.2 -0.1,-0.4 -0.1,-0.6 0,-0.2 0,-0.4 0.1,-0.6 0.1,-0.2 0.2,-0.4 0.3,-0.5 0.1,-0.1 0.3,-0.3 0.5,-0.3 0.2,-0.1 0.4,-0.1 0.6,-0.1 0.2,0 0.4,0 0.6,0.1 l 0.5,0.3 c 0.1,0.1 0.2,0.3 0.3,0.5 0.1,0.2 0.1,0.4 0.1,0.6 0,0.2 0,0.4 -0.1,0.6 z m -17.7,-1.8 c 0.1,-0.1 0.3,-0.3 0.5,-0.3 0.2,-0.1 0.4,-0.1 0.6,-0.1 0.2,0 0.5,0 0.7,0.1 0.2,0.1 0.4,0.2 0.5,0.3 l 0.5,-0.9 c -0.2,-0.2 -0.4,-0.3 -0.7,-0.4 -0.3,-0.1 -0.7,-0.2 -1.1,-0.2 -0.4,0 -0.7,0.1 -1.1,0.2 -0.3,0.1 -0.6,0.3 -0.9,0.6 -0.2,0.2 -0.4,0.5 -0.6,0.8 -0.1,0.3 -0.2,0.7 -0.2,1.1 0,0.4 0.1,0.7 0.2,1.1 0.1,0.3 0.3,0.6 0.6,0.8 0.2,0.2 0.5,0.4 0.9,0.6 0.3,0.1 0.7,0.2 1.1,0.2 0.4,0 0.7,-0.1 1.1,-0.2 0.2,-0.1 0.5,-0.2 0.7,-0.4 l -0.5,-0.9 -0.5,0.3 c -0.2,0.1 -0.4,0.1 -0.7,0.1 -0.2,0 -0.4,0 -0.6,-0.1 -0.2,-0.1 -0.4,-0.2 -0.5,-0.3 -0.1,-0.1 -0.3,-0.3 -0.3,-0.5 -0.1,-0.2 -0.1,-0.4 -0.1,-0.7 0,-0.3 0,-0.5 0.1,-0.7 0.1,-0.2 0.2,-0.4 0.3,-0.5" class="st6" style="fill:#2b2a29"/><path id="path48" d="m 284.5,119.8 h 0.2 l 0.2,0.1 c 0,0 0.1,0.1 0.1,0.2 v 0.4 l -0.1,0.2 c 0,0 -0.1,0.1 -0.2,0.1 h -0.4 l -0.2,-0.1 c 0,0 -0.1,-0.1 -0.1,-0.2 v -0.4 l 0.1,-0.2 c 0,0 0.1,-0.1 0.2,-0.1 h 0.2 m 0,0.9 h 0.1 c 0,0 0.1,0 0.1,-0.1 l 0.1,-0.1 v -0.2 c 0,0 0,-0.1 -0.1,-0.1 l -0.1,-0.1 h -0.2 c 0,0 -0.1,0 -0.1,0.1 l -0.1,0.1 v 0.2 c 0,0 0,0.1 0.1,0.1 l 0.1,0.1 z m 0,-0.6 h 0.1 v 0.2 h -0.1 l 0.1,0.2 h -0.2 l -0.1,-0.2 v 0.2 h -0.1 V 120 h 0.3 z m -0.1,0.1 0.1,0.1 c 0,-0.1 0,-0.1 -0.1,-0.1 z" class="st6" style="fill:#2b2a29"/><path id="path50" d="m 283.9,102.3 v -0.6 h -0.2 v -0.2 h 0.6 v 0.2 h -0.2 v 0.6 z m 1.2,0 v -0.5 l -0.2,0.4 h -0.2 l -0.2,-0.4 v 0.5 h -0.2 v -0.7 h 0.2 l 0.2,0.5 0.2,-0.5 h 0.2 z" style="fill:#f59f12"/><path id="path95" d="m 242.7,72.9 c 10.5,0 19,8.5 19,19 0,10.5 -8.5,19 -19,19 -10.5,0 -19,-8.5 -19,-19 0.1,-10.5 8.6,-19 19,-19" style="clip-rule:evenodd;fill:#e42126;fill-rule:evenodd"/><path id="path97" d="m 266.3,72.9 c 10.5,0 19,8.5 19,19 0,10.5 -8.5,19 -19,19 -10.5,0 -19,-8.5 -19,-19 0,-10.5 8.5,-19 19,-19" style="clip-rule:evenodd;fill:#f59f12;fill-rule:evenodd"/><path id="path99" d="m 254.5,77 c 4.4,3.5 7.2,8.8 7.2,14.9 0,6 -2.8,11.4 -7.2,14.9 -4.4,-3.5 -7.2,-8.8 -7.2,-14.9 0,-6 2.8,-11.4 7.2,-14.9" style="clip-rule:evenodd;fill:#eb6320;fill-rule:evenodd"/></g><path d="m 231,0.9 -7.6,15.4 -1.6,-15.4 h -7.3 l -8.1,15.4 -1.1,-15.4 h -8.9 l 3.5,24.8 h 8 l 8.3,-16 1.5,16 h 8 L 239.9,0.9 Z m -44,12.3 c -0.8,3.6 -4.5,6.3 -8.3,6.3 -3.7,0 -6.3,-2.6 -5.6,-6.2 h 0.1 C 174,9.7 177.7,7 181.4,7 c 3.7,0 6.3,2.6 5.6,6.2 z M 182.9,0 c -10.5,0 -17,7.1 -18.3,13.1 -1.4,6.1 2.2,13.2 12.7,13.2 10.5,0 17,-7.1 18.4,-13.2 C 196.9,7.2 193.4,0 182.9,0 Z m -28.7,0 c -5.1,0 -7.4,2.3 -8.7,3.5 l 0.6,-2.6 H 138 l -5.4,24.8 h 8.6 l 2.9,-13.5 c 0.6,-2.5 1.8,-5.2 6,-5.2 3.8,0 4,2.4 3.4,5.1 l -2.9,13.5 h 8.6 l 3.3,-15.5 C 163.4,6.8 163.9,0 154.2,0 Z M 96.3,13.6 c -0.4,1.1 -0.9,2.2 -1.9,3.2 -1.5,1.5 -3.6,2.8 -6.6,2.8 -5.2,0 -6.3,-3.9 -5.8,-6.2 0.6,-2.8 3.6,-6.4 8.5,-6.4 3.6,0 5.2,1.7 5.8,3.4 0.3,1 0.3,2.1 0,3.2 z M 128.1,0.9 119.5,15.3 116.7,0.9 H 99 L 98.4,3.5 C 97.6,2 95.4,0 90.6,0 83,0 75.1,5.1 73.3,13.2 c -1.6,7.1 2.4,13.3 11.6,13.3 3.4,0 7.2,-1.1 9.3,-3.5 l -0.6,2.7 h 8.6 l 5.3,-24.5 5.5,23.2 -6.6,9.5 h 9.1 L 137.1,0.8 h -9 z M 63.5,13.2 c -0.7,3.2 -4.1,6.3 -8.6,6.3 -2,0 -3.7,-0.7 -4.7,-1.8 -1.1,-1.1 -1.5,-2.7 -1.1,-4.4 0.4,-1.8 1.5,-3.4 3,-4.5 1.6,-1.2 3.5,-1.9 5.6,-1.9 4.7,0 6.4,3.4 5.8,6.3 z M 60.9,0 C 56.5,0 53.3,1.7 51,3.6 L 51.6,0.9 H 43.5 L 36.4,34 H 45 l 1.8,-8.3 0.5,-2.2 c 0.8,0.9 2.8,3.1 8,3.1 8.2,0 15.3,-5.9 16.8,-13 C 73.3,7.7 71.1,0 60.9,0 Z" id="path4" style="clip-rule:evenodd;fill:#185ff9;fill-rule:evenodd"/><path d="M 787.6,12.1 H 252.1 v 4.8 h 535.5 c 4.3,0 7.7,3.5 7.7,7.7 v 149.5 c 0,4.3 -3.5,7.7 -7.7,7.7 h -775 c -4.3,0 -7.7,-3.5 -7.7,-7.7 V 24.6 c 0,-4.3 3.5,-7.7 7.7,-7.7 H 24.2 V 12.1 H 12.5 C 5.6,12.1 0,17.7 0,24.6 v 149.5 c 0,6.9 5.6,12.5 12.5,12.5 h 775 c 6.9,0 12.5,-5.6 12.5,-12.5 V 24.6 c 0.1,-6.9 -5.6,-12.5 -12.4,-12.5" id="path6" style="clip-rule:evenodd;fill:#e6eaf0;fill-rule:evenodd"/><defs id="defs57"><path id="SVGID_1_" d="m 381.1,89.3 c -0.1,0 -0.3,0 -0.4,0.1 -0.2,0.1 -0.4,0.2 -0.5,0.4 -0.1,0.1 -0.1,0.3 -0.1,0.4 0,0.1 0.2,0.2 0.3,0.2 0.2,0 0.4,0 0.6,-0.1 0.2,-0.1 0.4,-0.2 0.5,-0.4 0.1,-0.1 0.1,-0.3 0.1,-0.4 -0.1,-0.1 -0.4,-0.2 -0.5,-0.2 m 1.1,3.5 c 0.1,0 0.1,0 0.2,-0.1 0.6,-0.3 1.1,-0.6 1.5,-1 -0.7,-0.5 -1.4,-1 -2.3,-1.4 -0.1,0.1 -0.2,0.2 -0.3,0.2 0.1,0.4 0.5,1.2 0.9,2.3 z m -2.3,0.5 c 0.6,0 1.3,-0.1 2,-0.4 -0.5,-1.1 -0.8,-1.9 -0.9,-2.3 h -0.3 c -0.2,0.5 -0.6,1.5 -0.8,2.7 z m -2.7,-1.5 0.1,0.3 c 0.1,0.3 0.3,0.5 0.6,0.7 0.7,-1.4 1.5,-2.3 1.8,-2.6 -1.3,0.6 -2.1,1.1 -2.5,1.6 z m 2.3,1.5 c 0.2,-1.2 0.5,-2.2 0.7,-2.6 -0.1,0 -0.3,-0.1 -0.4,-0.2 -0.3,0.3 -1.1,1.2 -1.7,2.4 0.3,0.2 0.7,0.3 1,0.3 0.2,0.1 0.3,0.1 0.4,0.1 z m 5.5,-2.7 c -1.5,-0.5 -2.7,-0.6 -3,-0.6 0,0 0,0.1 -0.1,0.1 0.9,0.5 1.7,1 2.3,1.5 0.3,-0.3 0.5,-0.5 0.7,-0.8 0,-0.1 0.1,-0.2 0.1,-0.2 z m 0.4,-1.4 c -1.7,-0.1 -2.9,0 -3.5,0.1 v 0.2 c 0.5,0 1.6,0.1 3.2,0.7 0.2,-0.3 0.3,-0.6 0.3,-1 z m 1,4.4 c 0.4,-0.4 0.7,-0.9 0.9,-1.4 l 0.2,-0.4 C 386.7,91.3 386,91 385.3,90.7 l -0.1,0.2 c -0.2,0.3 -0.4,0.6 -0.7,0.9 0.8,0.6 1.4,1.2 1.9,1.8 z m -3,2.1 0.3,-0.1 c 1,-0.4 1.8,-1 2.5,-1.7 -0.5,-0.6 -1.1,-1.3 -1.9,-1.9 -0.5,0.4 -1,0.8 -1.7,1.1 l -0.2,0.1 c 0.3,0.8 0.6,1.6 1,2.5 z m -3.7,0.6 c 1.1,0.1 2.2,0 3.4,-0.5 -0.4,-0.9 -0.7,-1.8 -1,-2.5 -0.8,0.3 -1.5,0.4 -2.2,0.4 -0.2,0.8 -0.3,1.7 -0.2,2.6 z m -2.4,-0.7 c 0.4,0.2 0.9,0.4 1.4,0.6 l 0.6,0.1 c 0,-0.9 0,-1.8 0.2,-2.6 h -0.3 c -0.4,-0.1 -0.8,-0.2 -1.2,-0.4 -0.3,0.7 -0.6,1.4 -0.7,2.3 z m 10.7,0.9 c 0.6,-0.7 1,-1.4 1.4,-2.1 l 0.3,-0.9 c -0.6,-0.6 -1.3,-1.1 -1.9,-1.5 l -0.2,0.4 c -0.3,0.5 -0.6,1 -1,1.5 0.7,0.9 1.1,1.8 1.4,2.6 z m -3.4,2.5 c 0.1,0 0.1,0 0.2,-0.1 1.1,-0.5 2.1,-1.2 2.9,-2.1 -0.3,-0.8 -0.7,-1.7 -1.4,-2.6 -0.7,0.7 -1.6,1.3 -2.5,1.7 l -0.3,0.1 c 0.4,1 0.8,2 1.1,3 z m -4.1,0.7 c 1.2,0.1 2.5,-0.1 3.8,-0.6 l -1.1,-2.9 c -1.2,0.4 -2.4,0.6 -3.5,0.5 0.1,1 0.3,2.1 0.8,3 z m -3.1,-0.7 1,0.4 c 0.5,0.2 1.1,0.3 1.7,0.3 -0.4,-1 -0.7,-2 -0.7,-3 l -0.7,-0.1 c -0.5,-0.1 -1,-0.3 -1.4,-0.5 -0.2,0.8 -0.2,1.8 0.1,2.9 z m 8,2.2 0.3,-0.1 c 0.9,-0.4 1.8,-1 2.5,-1.6 0,-0.6 -0.1,-1.4 -0.3,-2.2 -0.8,0.8 -1.8,1.5 -2.9,2 l -0.2,0.1 z m -3.3,0.7 c 1,0 2,-0.2 2.9,-0.6 -0.2,-0.6 -0.4,-1.2 -0.7,-1.9 -1.2,0.5 -2.5,0.7 -3.7,0.7 0.5,0.7 0.9,1.3 1.5,1.8 z m -2.5,-12.6 c 0.1,-0.1 0.2,-0.1 0.4,-0.2 l 0.1,0.2 -0.2,0.1 z m -2,1.6 c 0.5,-0.5 1,-1 1.6,-1.4 l 0.4,0.2 c -0.8,0.5 -1.5,0.9 -2,1.2 z m -1.6,3.6 c 0.1,-0.8 0.4,-1.6 0.8,-2.3 0,0 0.1,-0.1 0.1,-0.2 0,0 0,0.1 0.1,0.1 0.2,0.4 0.4,0.7 0.7,0.9 -0.3,0.7 -0.6,1.4 -0.7,2.3 -0.4,-0.2 -0.8,-0.5 -1,-0.8 z m 0.4,4 c -0.5,-1.1 -0.6,-2.3 -0.5,-3.5 0.3,0.3 0.6,0.6 1,0.8 -0.1,0.9 -0.1,1.9 0,3 -0.1,-0.1 -0.3,-0.2 -0.5,-0.3 z m 0.8,1.3 c -0.2,-0.2 -0.3,-0.5 -0.4,-0.7 l 0.3,0.2 c 0,0.1 0,0.3 0.1,0.5 z m 0.3,-0.3 0.8,0.3 c 0.6,0.2 1.3,0.3 2,0.4 0.3,0.6 0.8,1.2 1.3,1.8 -2.1,-0.1 -3.6,-0.4 -4.1,-2.5 z m 5.3,3.5 c -1.1,-0.1 -2.2,-0.4 -3.2,-0.9 0.8,0.2 1.6,0.3 2.4,0.3 0.2,0.1 0.5,0.4 0.8,0.6 z m 2.7,-0.4 c -0.7,0.2 -1.3,0.3 -2,0.4 -0.4,-0.2 -0.7,-0.4 -1,-0.7 0.9,-0.1 1.8,-0.3 2.6,-0.6 0.2,0.3 0.3,0.6 0.4,0.9 z m 2.6,-1.5 c -0.6,0.5 -1.2,0.9 -1.9,1.3 l -0.3,0.1 -0.3,-0.9 0.3,-0.1 c 0.9,-0.4 1.6,-0.9 2.3,-1.5 0,0.6 -0.1,0.9 -0.1,1.1 z m 2.1,-3.4 c -0.3,1.1 -0.9,2.1 -1.6,2.9 0,-0.3 0.1,-0.6 0,-1 0.6,-0.6 1.2,-1.2 1.6,-1.9 z m 0.2,-1.3 -0.1,0.2 c -0.4,0.9 -1,1.8 -1.8,2.5 0,-0.6 -0.2,-1.4 -0.4,-2.2 0.7,-0.7 1.2,-1.5 1.6,-2.4 l 0.3,-0.7 c 0.4,0.5 0.5,1.9 0.4,2.6 z m -2.1,-5.9 c 0.4,0.4 1.4,1.7 1.6,2.6 -0.6,-0.6 -1.2,-1 -1.8,-1.4 0.1,-0.4 0.2,-0.8 0.2,-1.2 z m -0.4,-0.4 c 0,0.4 -0.1,0.9 -0.3,1.3 -0.8,-0.5 -1.5,-0.8 -2.2,-1.1 0.2,-0.4 0.3,-1 0.3,-1.3 0.7,0.1 1.8,0.7 2.2,1.1 z m -5.7,-1.7 c 0.5,-0.1 2.8,-0.1 3.2,0.4 -1.6,-0.1 -2.9,0 -3.5,0.1 z m -1,0.2 c 0.2,-0.1 0.4,-0.1 0.5,-0.1 l -0.3,0.5 h -0.3 z m -0.9,0.4 0.5,-0.2 V 89 c -0.1,0 -0.2,0 -0.3,0.1 0,0 -0.1,0 -0.1,0.1 z"/><filter style="color-interpolation-filters:sRGB" id="filter1367" x="-0.057583679" width="1.1151674" y="-0.095946431" height="1.1918929"><feGaussianBlur stdDeviation="2.910375" id="feGaussianBlur1369"/></filter><filter style="color-interpolation-filters:sRGB" id="filter1371" x="-0.057583679" width="1.1151674" y="-0.095946431" height="1.1918929"><feGaussianBlur stdDeviation="2.910375" id="feGaussianBlur1373"/></filter><filter style="color-interpolation-filters:sRGB" id="filter1375" x="-0.057583679" width="1.1151674" y="-0.095946431" height="1.1918929"><feGaussianBlur stdDeviation="2.910375" id="feGaussianBlur1377"/></filter><filter style="color-interpolation-filters:sRGB" id="filter1379" x="-0.057583679" width="1.1151674" y="-0.095946431" height="1.1918929"><feGaussianBlur stdDeviation="2.910375" id="feGaussianBlur1381"/></filter><filter style="color-interpolation-filters:sRGB" id="filter1383" x="-0.057583679" width="1.1151674" y="-0.095946431" height="1.1918929"><feGaussianBlur stdDeviation="2.910375" id="feGaussianBlur1385"/></filter></defs><clipPath id="SVGID_2_"><use xlink:href="#SVGID_1_" overflow="visible" id="use59" style="overflow:visible" x="0" y="0" width="100%" height="100%"/></clipPath><linearGradient id="SVGID_3_" gradientUnits="userSpaceOnUse" x1="378.43399" y1="93.190002" x2="387.05399" y2="97.720001"><stop offset="0" stop-color="#8E72A8" id="stop62"/><stop offset="1" stop-color="#3A2854" id="stop64"/></linearGradient></svg>